#!OML:ASF H:\Not Pregnant\Project 1\Capture day 1\Session 1\non-pregnant.ASF
:FULLY-SPECIFIED
:DEGREES
1124
root -5.44516 15.76 41.138 -168.976 186.99 -182.41
lowerback -3.20696 3.66445 1.78643
upperback -7.89327 4.8935 -0.562573
thorax -6.21482 2.31279 -1.68203
lowerneck 25.0222 -13.6199 -30.2798
upperneck -8.52358 -26.053 42.8156
head 4.54977 -16.0294 20.1065
rclavicle 1.28216e-014 7.15625e-015
rhumerus -45.4301 -0.467431 -88.5231
rradius 27.8912
rwrist -4.87539
rhand -13.6319 -14.6012
rfingers 7.12502
rthumb 12.484 -44.2084
lclavicle 1.28216e-014 7.15625e-015
lhumerus -59.9758 5.04008 76.4184
lradius 33.442
lwrist 43.9963
lhand -16.3534 -13.15
lfingers 7.12502
lthumb 9.85921 16.5991
rfemur -23.9388 0.363973 24.9059
rtibia 34.9189
rfoot -17.6701 17.5003
rtoes -11.7952
lfemur -22.2984 -3.0288 -16.7966
ltibia 37.51
lfoot -20.7176 2.55936
ltoes -33.0414
1125
root -5.44212 15.7507 41.1578 -168.981 187.202 -182.554
lowerback -3.2826 3.64623 1.83022
upperback -7.87836 4.86766 -0.539396
thorax -6.15519 2.29899 -1.6755
lowerneck 25.2981 -13.7774 -30.1135
upperneck -8.6378 -26.2858 42.9331
head 4.56979 -16.1895 20.0978
rclavicle 9.96408e-015 -4.96962e-015
rhumerus -44.6331 -0.0903182 -89.0632
rradius 27.9255
rwrist -2.70397
rhand -12.9538 -14.0462
rfingers 7.12502
rthumb 13.1377 -43.6123
lclavicle 9.96408e-015 -4.96962e-015
lhumerus -59.4983 4.92139 76.7213
lradius 33.538
lwrist 44.3564
lhand -16.7257 -13.2761
lfingers 7.12502
lthumb 9.49997 16.4897
rfemur -23.7739 0.487872 25.0265
rtibia 34.8145
rfoot -17.8488 17.5559
rtoes -11.5298
lfemur -21.9762 -2.9073 -16.6884
ltibia 37.1556
lfoot -20.1395 2.16413
ltoes -32.2215
1126
root -5.43902 15.7413 41.1772 -168.98 187.382 -182.722
lowerback -3.35918 3.61303 1.90337
upperback -7.8713 4.82232 -0.507597
thorax -6.1027 2.27386 -1.67634
lowerneck 25.5735 -13.9419 -29.9505
upperneck -8.73752 -26.5298 43.0195
head 4.59116 -16.3513 20.0678
rclavicle -5.04913e-014 -4.57205e-015
rhumerus -43.8571 0.287958 -89.5848
rradius 28.0095
rwrist -0.595584
rhand -12.223 -13.3999
rfingers 7.12502
rthumb 13.8421 -42.9193
lclavicle -5.04913e-014 -4.57205e-015
lhumerus -59.0058 4.7683 77.0613
lradius 33.6413
lwrist 44.7168
lhand -17.1062 -13.3376
lfingers 7.12502
lthumb 9.13284 16.4447
rfemur -23.5943 0.612128 25.1746
rtibia 34.68
rfoot -18.0222 17.5806
rtoes -11.2704
lfemur -21.6786 -2.73046 -16.5771
ltibia 36.8145
lfoot -19.7189 1.84617
ltoes -31.4919
1127
root -5.43599 15.7322 41.1961 -168.974 187.532 -182.906
lowerback -3.45305 3.56446 1.99795
upperback -7.8559 4.75609 -0.468166
thorax -6.03134 2.23772 -1.67937
lowerneck 25.8335 -14.1159 -29.791
upperneck -8.83625 -26.7827 43.091
head 4.61569 -16.5143 20.0235
rclavicle -1.19768e-014 -8.34896e-015
rhumerus -43.0695 0.688995 -90.11
rradius 28.1577
rwrist 1.28611
rhand -11.4755 -12.7528
rfingers 7.12502
rthumb 14.5624 -42.2216
lclavicle -1.19768e-014 -8.34896e-015
lhumerus -58.4667 4.59998 77.4224
lradius 33.7144
lwrist 45.0125
lhand -17.4477 -13.3746
lfingers 7.12502
lthumb 8.80336 16.4218
rfemur -23.4031 0.714339 25.3453
rtibia 34.5197
rfoot -18.1906 17.5955
rtoes -11.02
lfemur -21.3985 -2.50625 -16.4662
ltibia 36.4735
lfoot -19.5017 1.66733
ltoes -30.9673
1128
root -5.43293 15.7236 41.2142 -168.966 187.651 -183.113
lowerback -3.54964 3.50302 2.11927
upperback -7.83456 4.67284 -0.417865
thorax -5.95186 2.19211 -1.68553
lowerneck 26.1152 -14.2892 -29.6457
upperneck -8.97284 -27.035 43.1763
head 4.63159 -16.6812 19.9914
rclavicle -3.85642e-014 -1.74931e-014
rhumerus -42.2775 1.13522 -90.6574
rradius 28.381
rwrist 2.78737
rhand -10.7669 -12.1534
rfingers 7.12502
rthumb 15.245 -41.5717
lclavicle -3.85642e-014 -1.74931e-014
lhumerus -57.9015 4.41214 77.8085
lradius 33.7879
lwrist 45.2387
lhand -17.7484 -13.3779
lfingers 7.12502
lthumb 8.51319 16.4305
rfemur -23.2016 0.774442 25.5478
rtibia 34.337
rfoot -18.3522 17.6226
rtoes -10.7675
lfemur -21.1221 -2.24485 -16.3441
ltibia 36.1248
lfoot -19.4719 1.67907
ltoes -30.7885
1129
root -5.42927 15.7162 41.2314 -168.957 187.736 -183.315
lowerback -3.63047 3.42415 2.24037
upperback -7.82917 4.56691 -0.361768
thorax -5.90016 2.13481 -1.6875
lowerneck 26.4724 -14.4372 -29.5292
upperneck -9.15777 -27.2669 43.2858
head 4.62445 -16.8492 19.9974
rclavicle -7.54885e-014 -2.78299e-014
rhumerus -41.5301 1.65147 -91.2423
rradius 28.6867
rwrist 3.79392
rhand -10.1636 -11.6156
rfingers 7.12502
rthumb 15.8261 -40.9888
lclavicle -7.54885e-014 -2.78299e-014
lhumerus -57.3515 4.21987 78.1924
lradius 33.825
lwrist 45.3094
lhand -17.9375 -13.4416
lfingers 7.12502
lthumb 8.33061 16.3741
rfemur -22.998 0.760643 25.7505
rtibia 34.1358
rfoot -18.5035 17.6939
rtoes -10.4874
lfemur -20.843 -1.98238 -16.2363
ltibia 35.7636
lfoot -19.5739 1.85965
ltoes -30.8444
